<?xml version="1.0" standalone="no"?>
<!DOCTYPE svg PUBLIC "-//W3C//DTD SVG 20010904//EN"
 "http://www.w3.org/TR/2001/REC-SVG-20010904/DTD/svg10.dtd">
<svg version="1.0" xmlns="http://www.w3.org/2000/svg"
 width="300.000000pt" height="147.000000pt" viewBox="0 0 300.000000 147.000000"
 preserveAspectRatio="xMidYMid meet">
<metadata>
Created by potrace 1.10, written by Peter Selinger 2001-2011
</metadata>
<g transform="translate(0.000000,147.000000) scale(0.100000,-0.100000)"
fill="#000000" stroke="none">
<path d="M1321 1223 c-15 -16 -58 -84 -96 -153 -71 -131 -161 -270 -173 -270
-4 0 -18 28 -31 63 -28 74 -88 187 -147 279 -58 91 -113 105 -137 35 -7 -22
-3 -37 17 -75 52 -92 97 -194 132 -293 19 -56 34 -102 32 -104 -12 -11 -640
37 -773 59 -47 8 -89 10 -102 5 -41 -15 -43 -90 -3 -127 17 -16 38 -19 128
-21 59 -1 184 -8 278 -16 94 -8 231 -17 305 -21 74 -4 136 -8 138 -10 2 -2
-12 -25 -31 -51 -55 -75 -154 -259 -194 -361 -41 -103 -40 -144 3 -150 43 -6
62 18 142 181 72 147 177 327 192 327 3 0 11 -12 18 -27 40 -92 211 -392 239
-420 42 -43 91 -46 121 -7 41 52 28 89 -77 227 -75 97 -162 240 -162 266 0 9
24 10 98 5 107 -7 145 3 176 48 22 31 20 54 -5 79 -21 21 -28 21 -145 15 -68
-4 -124 -4 -124 -1 0 4 22 37 48 74 27 36 78 113 114 171 136 219 149 254 106
284 -32 23 -56 20 -87 -11z m-7 -174 c-37 -63 -90 -148 -119 -189 -71 -102
-84 -130 -74 -157 13 -36 40 -43 142 -38 72 3 98 1 106 -9 9 -11 8 -18 -4 -30
-16 -16 -59 -21 -141 -17 -23 2 -57 -4 -77 -13 -32 -13 -37 -20 -37 -47 0 -41
56 -146 124 -234 89 -114 116 -157 116 -186 0 -29 -24 -50 -47 -42 -11 4 -73
87 -73 97 0 2 -27 51 -60 110 -34 59 -65 116 -70 129 -24 52 -59 103 -83 117
-25 14 -28 13 -57 -15 -48 -46 -142 -208 -225 -388 -24 -51 -48 -78 -59 -66
-10 10 108 257 172 363 40 65 72 124 72 132 0 7 -11 21 -25 32 -20 16 -47 20
-152 26 -141 7 -195 11 -358 26 -60 5 -148 12 -195 15 -117 8 -130 12 -130 36
0 28 19 32 102 19 150 -23 332 -38 565 -46 168 -7 185 -6 203 11 25 23 25 43
-1 119 -54 154 -75 205 -111 264 -21 34 -38 69 -38 77 0 27 35 16 55 -18 73
-118 109 -185 134 -247 25 -64 63 -110 91 -110 18 0 100 85 100 104 0 5 6 17
14 25 8 9 42 68 76 131 33 63 75 128 93 145 31 28 32 28 35 8 2 -12 -25 -68
-64 -134z"/>
<path d="M1695 1195 c-47 -46 -27 -107 78 -234 58 -72 157 -225 157 -245 0 -7
-51 -11 -158 -11 -181 0 -202 -6 -202 -59 0 -19 6 -38 13 -43 6 -6 82 -13 167
-17 85 -4 156 -9 158 -10 2 -2 -32 -50 -75 -107 -44 -57 -94 -129 -113 -159
-18 -30 -57 -92 -87 -136 -54 -83 -65 -122 -38 -144 20 -17 79 -5 109 23 13
12 55 76 93 142 67 117 198 305 213 305 4 0 15 -21 25 -48 53 -140 185 -366
232 -397 36 -24 70 -7 78 38 5 27 1 42 -23 78 -49 75 -70 119 -118 249 -25 69
-48 132 -50 140 -4 13 15 15 143 13 133 -3 346 -14 553 -29 64 -5 80 -2 108
15 21 14 32 29 32 44 0 44 -26 55 -155 61 -527 28 -649 34 -661 29 -18 -7 -18
16 -1 36 8 9 39 57 69 106 53 85 74 127 139 273 l29 63 -25 25 c-47 47 -75 27
-135 -103 -28 -58 -82 -157 -122 -219 l-72 -114 -19 32 c-11 18 -59 94 -107
168 -48 74 -99 156 -114 182 -27 48 -59 78 -84 78 -7 0 -24 -11 -37 -25z m101
-97 c21 -35 79 -127 130 -205 104 -159 124 -175 170 -132 34 32 120 172 183
298 49 96 81 133 67 75 -11 -42 -108 -231 -160 -311 -96 -149 -84 -162 176
-174 101 -4 262 -13 358 -19 96 -5 183 -10 193 -10 20 0 23 -28 3 -36 -7 -3
-100 2 -206 10 -261 22 -538 22 -568 0 -12 -8 -22 -24 -22 -36 0 -49 115 -333
161 -400 23 -32 24 -58 4 -58 -22 0 -97 121 -167 267 -65 136 -83 163 -109
163 -38 0 -151 -144 -249 -315 -64 -111 -91 -145 -116 -145 -24 0 -16 21 38
104 28 45 63 99 77 121 14 22 55 81 92 130 80 109 89 126 83 151 -10 37 -43
47 -177 52 -70 3 -130 9 -133 13 -11 18 52 29 171 29 115 0 126 2 145 22 26
28 25 43 -5 98 -13 25 -28 55 -34 66 -5 12 -40 59 -77 105 -75 93 -104 141
-104 176 0 16 6 23 19 23 13 0 32 -20 57 -62z"/>
</g>
</svg>
